<?xml version="1.0" encoding="UTF-8" standalone="no"?>
<svg
   xmlns:dc="http://purl.org/dc/elements/1.1/"
   xmlns:cc="http://creativecommons.org/ns#"
   xmlns:rdf="http://www.w3.org/1999/02/22-rdf-syntax-ns#"
   xmlns:svg="http://www.w3.org/2000/svg"
   xmlns="http://www.w3.org/2000/svg"
   xmlns:sodipodi="http://sodipodi.sourceforge.net/DTD/sodipodi-0.dtd"
   xmlns:inkscape="http://www.inkscape.org/namespaces/inkscape"
   enable-background="new 0 0 512 512"
   height="512px"
   id="Layer_1"
   version="1.1"
   viewBox="0 0 512 512"
   width="512px"
   xml:space="preserve"
   sodipodi:docname="add_flat.svg"
   inkscape:version="0.92.3 (2405546, 2018-03-11)"><metadata
     id="metadata13"><rdf:RDF><cc:Work
         rdf:about=""><dc:format>image/svg+xml</dc:format><dc:type
           rdf:resource="http://purl.org/dc/dcmitype/StillImage" /></cc:Work></rdf:RDF></metadata><defs
     id="defs11" /><sodipodi:namedview
     pagecolor="#ffffff"
     bordercolor="#666666"
     borderopacity="1"
     objecttolerance="10"
     gridtolerance="10"
     guidetolerance="10"
     inkscape:pageopacity="0"
     inkscape:pageshadow="2"
     inkscape:window-width="697"
     inkscape:window-height="480"
     id="namedview9"
     showgrid="false"
     inkscape:zoom="0.4609375"
     inkscape:cx="-79.186441"
     inkscape:cy="256"
     inkscape:window-x="0"
     inkscape:window-y="0"
     inkscape:window-maximized="0"
     inkscape:current-layer="Layer_1" /><g
     id="g6"
     style="fill:#b3b3b3"><path
       d="M256.108,3.02c-139.743,0-253,113.257-253,253s113.257,252.995,253,252.995   c139.743,0,253-113.252,253-252.995S395.852,3.02,256.108,3.02z M256.108,488.775c-128.338,0-232.76-104.417-232.76-232.755   c0-128.339,104.422-232.76,232.76-232.76c128.338,0,232.76,104.421,232.76,232.76C488.868,384.358,384.446,488.775,256.108,488.775   z"
       fill="#37404D"
       id="path2"
       style="fill:#b3b3b3" /><polygon
       fill="#37404D"
       points="266.228,104.22 245.988,104.22 245.988,245.9 104.98,245.9 104.98,266.14 245.988,266.14    245.988,407.148 266.228,407.148 266.228,266.14 407.908,266.14 407.908,245.9 266.228,245.9  "
       id="polygon4"
       style="fill:#b3b3b3" /></g></svg>