<?xml version="1.0" encoding="UTF-8" standalone="no"?>
<svg
   xmlns:dc="http://purl.org/dc/elements/1.1/"
   xmlns:cc="http://creativecommons.org/ns#"
   xmlns:rdf="http://www.w3.org/1999/02/22-rdf-syntax-ns#"
   xmlns:svg="http://www.w3.org/2000/svg"
   xmlns="http://www.w3.org/2000/svg"
   xmlns:sodipodi="http://sodipodi.sourceforge.net/DTD/sodipodi-0.dtd"
   xmlns:inkscape="http://www.inkscape.org/namespaces/inkscape"
   enable-background="new 0 0 512 512"
   height="512px"
   id="Layer_1"
   version="1.1"
   viewBox="0 0 512 512"
   width="512px"
   xml:space="preserve"
   sodipodi:docname="cross_flat.svg"
   inkscape:version="0.92.3 (2405546, 2018-03-11)"><metadata
     id="metadata11"><rdf:RDF><cc:Work
         rdf:about=""><dc:format>image/svg+xml</dc:format><dc:type
           rdf:resource="http://purl.org/dc/dcmitype/StillImage" /></cc:Work></rdf:RDF></metadata><defs
     id="defs9" /><sodipodi:namedview
     pagecolor="#ffffff"
     bordercolor="#666666"
     borderopacity="1"
     objecttolerance="10"
     gridtolerance="10"
     guidetolerance="10"
     inkscape:pageopacity="0"
     inkscape:pageshadow="2"
     inkscape:window-width="697"
     inkscape:window-height="480"
     id="namedview7"
     showgrid="false"
     inkscape:zoom="0.4609375"
     inkscape:cx="-79.186441"
     inkscape:cy="256"
     inkscape:window-x="0"
     inkscape:window-y="0"
     inkscape:window-maximized="0"
     inkscape:current-layer="Layer_1" /><path
     d="M256,7C118.467,7,7,118.468,7,256.002C7,393.533,118.467,505,256,505s249-111.467,249-248.998  C505,118.468,393.533,7,256,7z M256,485.08c-126.31,0-229.08-102.771-229.08-229.078C26.92,129.692,129.69,26.92,256,26.92  c126.309,0,229.08,102.771,229.08,229.082C485.08,382.309,382.309,485.08,256,485.08z"
     fill="#425661"
     id="path2"
     style="fill:#000000" /><polygon
     fill="#425661"
     points="368.545,157.073 354.461,142.988 255.863,241.587 157.733,143.456 143.648,157.54 241.78,255.672   143.648,353.809 157.733,367.893 255.863,269.75 354.461,368.361 368.545,354.275 269.947,255.672 "
     id="polygon4"
     style="fill:#000000" /></svg>